<svg width="603" height="556" viewBox="0 0 603 556" fill="none" xmlns="http://www.w3.org/2000/svg">
<path d="M489.414 556C552.146 556 603 548.152 603 538.472C603 528.791 552.146 520.943 489.414 520.943C426.682 520.943 375.828 528.791 375.828 538.472C375.828 548.152 426.682 556 489.414 556Z" fill="#E6E6E6"/>
<path d="M0 0H602.32V0.000511829C602.32 67.583 589.414 134.504 564.337 196.942C539.261 259.38 502.505 316.113 456.17 363.901C409.835 411.689 354.827 449.596 294.287 475.459C233.747 501.322 168.861 514.633 103.333 514.633H0V0Z" fill="#3F3D56"/>
<path d="M443.826 175.5C470.815 175.5 492.694 152.935 492.694 125.1C492.694 97.2649 470.815 74.7002 443.826 74.7002C416.838 74.7002 394.959 97.2649 394.959 125.1C394.959 152.935 416.838 175.5 443.826 175.5Z" fill="#F2F2F2"/>
<path d="M293.733 27.1804C296.046 27.1804 297.922 25.2463 297.922 22.8604C297.922 20.4745 296.046 18.5404 293.733 18.5404C291.42 18.5404 289.544 20.4745 289.544 22.8604C289.544 25.2463 291.42 27.1804 293.733 27.1804Z" fill="#FF6584"/>
<path d="M429.864 316.619C432.177 316.619 434.053 314.685 434.053 312.299C434.053 309.913 432.177 307.979 429.864 307.979C427.551 307.979 425.676 309.913 425.676 312.299C425.676 314.685 427.551 316.619 429.864 316.619Z" fill="#FF6584"/>
<path d="M443.826 27.1804C446.14 27.1804 448.015 25.2463 448.015 22.8604C448.015 20.4745 446.14 18.5404 443.826 18.5404C441.513 18.5404 439.638 20.4745 439.638 22.8604C439.638 25.2463 441.513 27.1804 443.826 27.1804Z" fill="#F2F2F2"/>
<path d="M502.467 235.259C504.781 235.259 506.656 233.325 506.656 230.939C506.656 228.554 504.781 226.62 502.467 226.62C500.154 226.62 498.279 228.554 498.279 230.939C498.279 233.325 500.154 235.259 502.467 235.259Z" fill="#F2F2F2"/>
<path d="M335.62 143.82C337.933 143.82 339.808 141.886 339.808 139.5C339.808 137.114 337.933 135.18 335.62 135.18C333.306 135.18 331.431 137.114 331.431 139.5C331.431 141.886 333.306 143.82 335.62 143.82Z" fill="#F2F2F2"/>
<path d="M114.319 115.02C116.633 115.02 118.508 113.086 118.508 110.7C118.508 108.314 116.633 106.38 114.319 106.38C112.006 106.38 110.131 108.314 110.131 110.7C110.131 113.086 112.006 115.02 114.319 115.02Z" fill="#F2F2F2"/>
<path d="M193.206 436.859C271.859 436.859 335.62 371.098 335.62 289.979C335.62 208.86 271.859 143.1 193.206 143.1C114.552 143.1 50.7915 208.86 50.7915 289.979C50.7915 371.098 114.552 436.859 193.206 436.859Z" fill="#00ACDD"/>
<path opacity="0.2" d="M186.923 251.819C198.489 251.819 207.866 242.149 207.866 230.219C207.866 218.29 198.489 208.62 186.923 208.62C175.356 208.62 165.979 218.29 165.979 230.219C165.979 242.149 175.356 251.819 186.923 251.819Z" fill="black"/>
<path opacity="0.2" d="M186.923 412.379C206.971 412.379 223.224 395.616 223.224 374.939C223.224 354.261 206.971 337.499 186.923 337.499C166.874 337.499 150.621 354.261 150.621 374.939C150.621 395.616 166.874 412.379 186.923 412.379Z" fill="black"/>
<path opacity="0.2" d="M81.5083 327.419C86.5205 327.419 90.5837 323.228 90.5837 318.059C90.5837 312.89 86.5205 308.699 81.5083 308.699C76.4961 308.699 72.4329 312.89 72.4329 318.059C72.4329 323.228 76.4961 327.419 81.5083 327.419Z" fill="black"/>
<path opacity="0.2" d="M439.575 104.079C442.24 104.079 444.4 101.851 444.4 99.1029C444.4 96.3549 442.24 94.1272 439.575 94.1272C436.911 94.1272 434.751 96.3549 434.751 99.1029C434.751 101.851 436.911 104.079 439.575 104.079Z" fill="black"/>
<path opacity="0.2" d="M235.03 202.718C237.694 202.718 239.854 200.49 239.854 197.742C239.854 194.994 237.694 192.767 235.03 192.767C232.365 192.767 230.205 194.994 230.205 197.742C230.205 200.49 232.365 202.718 235.03 202.718Z" fill="black"/>
<path opacity="0.2" d="M180.64 302.939C184.11 302.939 186.923 300.038 186.923 296.459C186.923 292.88 184.11 289.979 180.64 289.979C177.17 289.979 174.357 292.88 174.357 296.459C174.357 300.038 177.17 302.939 180.64 302.939Z" fill="black"/>
<path opacity="0.2" d="M427.832 143.833C430.497 143.833 432.657 141.605 432.657 138.857C432.657 136.109 430.497 133.881 427.832 133.881C425.168 133.881 423.008 136.109 423.008 138.857C423.008 141.605 425.168 143.833 427.832 143.833Z" fill="black"/>
<path opacity="0.2" d="M297.984 266.232C300.649 266.232 302.809 264.005 302.809 261.257C302.809 258.509 300.649 256.281 297.984 256.281C295.32 256.281 293.16 258.509 293.16 261.257C293.16 264.005 295.32 266.232 297.984 266.232Z" fill="black"/>
<path opacity="0.2" d="M471.065 141.351C474.914 141.351 478.034 138.134 478.034 134.164C478.034 130.195 474.914 126.977 471.065 126.977C467.216 126.977 464.096 130.195 464.096 134.164C464.096 138.134 467.216 141.351 471.065 141.351Z" fill="black"/>
<path opacity="0.2" d="M258.142 319.191C261.991 319.191 265.111 315.973 265.111 312.003C265.111 308.034 261.991 304.816 258.142 304.816C254.293 304.816 251.173 308.034 251.173 312.003C251.173 315.973 254.293 319.191 258.142 319.191Z" fill="black"/>
<path opacity="0.2" d="M105.244 239.579C110.256 239.579 114.319 235.389 114.319 230.219C114.319 225.05 110.256 220.86 105.244 220.86C100.232 220.86 96.1685 225.05 96.1685 230.219C96.1685 235.389 100.232 239.579 105.244 239.579Z" fill="black"/>
<path d="M224.061 374.643C209.085 374.622 194.121 373.73 179.241 371.972C134.488 366.73 93.2132 354.344 63.02 337.095C32.4573 319.635 16.8184 299.192 18.9833 279.529C20.4831 265.907 33.2495 253.714 58.0116 242.256C58.3494 242.1 58.7332 242.089 59.0789 242.225C59.4245 242.361 59.7037 242.633 59.8551 242.981C60.0065 243.329 60.0178 243.725 59.8865 244.082C59.7553 244.439 59.4921 244.727 59.1549 244.884C35.3698 255.89 23.1372 267.329 21.758 279.854C19.7284 298.284 34.8629 317.717 64.3733 334.576C94.2529 351.646 135.159 363.91 179.556 369.11C223.954 374.31 266.484 371.818 299.315 362.094C331.739 352.49 350.713 337.051 352.742 318.622C354.115 306.154 347.457 292.934 333.486 280.391C333.207 280.141 333.036 279.786 333.01 279.405C332.985 279.023 333.107 278.648 333.35 278.359C333.593 278.071 333.938 277.895 334.307 277.868C334.676 277.842 335.041 277.968 335.32 278.219C350.015 291.412 356.999 305.496 355.517 318.946C353.352 338.609 333.666 354.915 300.086 364.862C278.222 371.338 252.125 374.643 224.061 374.643Z" fill="white"/>
<path d="M443.097 505.589L444.086 514.774L435.181 513.753V502.527L443.097 505.589Z" fill="#FFB8B8"/>
<path d="M536.111 505.589L535.121 514.774L544.026 513.753V502.527L536.111 505.589Z" fill="#FFB8B8"/>
<path d="M442.107 307.606L438.149 412.721C438.149 412.721 425.286 491.302 428.254 493.343C431.223 495.384 428.254 506.61 428.254 506.61L445.076 508.651C445.076 508.651 445.076 500.486 449.034 497.425C452.992 494.363 489.604 350.468 489.604 350.468L527.205 489.261C527.205 489.261 526.215 497.425 529.184 497.425C532.152 497.425 533.142 508.651 533.142 508.651H549.964V497.425C549.964 497.425 554.911 496.404 551.943 488.24C548.974 480.076 538.09 307.606 538.09 307.606L442.107 307.606Z" fill="#2F2E41"/>
<path d="M437.16 505.589C437.16 505.589 432.212 502.527 430.233 504.569C428.254 506.61 412.422 527.02 412.422 527.02C412.422 527.02 390.653 541.308 410.443 545.39C430.233 549.472 445.076 530.082 446.065 528.041C447.055 526 445.076 509.671 444.086 511.712C443.097 513.753 440.128 512.733 439.139 511.712C438.149 510.692 437.16 505.589 437.16 505.589Z" fill="#2F2E41"/>
<path d="M542.047 505.589C542.047 505.589 546.995 502.527 548.974 504.569C550.953 506.61 566.785 527.02 566.785 527.02C566.785 527.02 588.554 541.308 568.764 545.39C548.974 549.472 534.131 530.082 533.142 528.041C532.152 526 534.131 509.671 535.121 511.712C536.11 513.753 539.079 512.733 540.068 511.712C541.058 510.692 542.047 505.589 542.047 505.589Z" fill="#2F2E41"/>
<path d="M501.973 156.567C513.176 156.567 522.257 147.2 522.257 135.646C522.257 124.092 513.176 114.725 501.973 114.725C490.77 114.725 481.688 124.092 481.688 135.646C481.688 147.2 490.77 156.567 501.973 156.567Z" fill="#FFB8B8"/>
<path d="M488.614 147.382L485.645 179.019L509.394 184.122L515.331 146.362L488.614 147.382Z" fill="#FFB8B8"/>
<path d="M513.352 171.875C513.352 171.875 507.415 185.142 485.646 170.854L445.076 307.606C445.076 307.606 499.499 341.283 534.132 315.77L522.257 177.998L513.352 171.875Z" fill="#575A89"/>
<path d="M489.604 156.567L470.803 153.505L468.824 166.772C468.824 166.772 443.097 169.834 440.128 180.039L443.097 255.559C443.097 255.559 434.191 271.887 442.107 282.092C442.107 282.092 429.244 309.647 439.139 314.75C439.139 314.75 461.897 303.524 475.751 306.585C475.751 306.585 483.667 304.544 483.667 298.421C483.667 292.298 489.604 156.567 489.604 156.567Z" fill="#2F2E41"/>
<path d="M512.362 158.608L523.247 161.67L524.236 175.957C524.236 175.957 550.953 193.306 551.943 203.511C552.932 213.717 532.153 262.702 532.153 262.702C532.153 262.702 540.069 276.99 537.1 286.175C537.1 286.175 549.964 312.708 542.048 319.852C542.048 319.852 527.205 323.934 525.226 317.811C523.247 311.688 505.436 241.271 513.352 207.594C513.352 207.594 505.436 164.731 512.362 158.608Z" fill="#2F2E41"/>
<path d="M523.742 191.843H523.369V181.321C523.369 180.521 523.216 179.729 522.92 178.99C522.623 178.251 522.188 177.58 521.64 177.014C521.091 176.449 520.44 176 519.724 175.694C519.007 175.388 518.24 175.23 517.464 175.23H495.848C495.072 175.23 494.304 175.388 493.588 175.694C492.872 176 492.221 176.449 491.672 177.014C491.124 177.58 490.689 178.251 490.392 178.99C490.095 179.729 489.943 180.521 489.943 181.321V239.05C489.943 239.849 490.095 240.641 490.392 241.38C490.689 242.119 491.124 242.791 491.672 243.356C492.221 243.922 492.872 244.37 493.588 244.676C494.304 244.982 495.072 245.14 495.848 245.14H517.464C518.24 245.14 519.007 244.982 519.724 244.676C520.44 244.37 521.091 243.922 521.64 243.356C522.188 242.791 522.623 242.119 522.92 241.38C523.216 240.641 523.369 239.849 523.369 239.05V199.334H523.742V191.843Z" fill="white"/>
<path d="M533.142 233.107C533.142 233.107 525.226 206.573 513.352 214.737C501.478 222.902 521.268 245.353 521.268 245.353L533.142 233.107Z" fill="#FFB8B8"/>
<path d="M478.719 213.717C478.719 213.717 492.572 196.368 499.499 204.532C506.425 212.696 487.625 231.066 487.625 231.066L478.719 213.717Z" fill="#FFB8B8"/>
<path d="M443.097 179.019C443.097 179.019 438.149 177.998 435.181 187.183C432.212 196.368 421.328 231.066 421.328 237.189C421.328 243.312 425.286 267.805 447.055 263.723C468.824 259.641 494.551 231.066 494.551 231.066L480.698 209.635L451.013 228.004L443.097 179.019Z" fill="#2F2E41"/>
<path opacity="0.1" d="M447.372 205.476L451.508 227.494L482.182 209.125L453.487 220.351L447.16 204.162L447.372 205.476Z" fill="black"/>
<path opacity="0.1" d="M534.626 227.494L538.584 230.556L540.563 216.268L534.626 227.494Z" fill="black"/>
<path opacity="0.1" d="M442.602 266.274C442.602 266.274 471.667 258.119 485.335 240.255C485.335 240.255 471.298 264.233 442.602 266.274Z" fill="black"/>
<path opacity="0.1" d="M515.826 247.905C515.826 247.905 521.946 278.796 537.686 279.679C537.686 279.679 518.794 285.664 515.826 247.905Z" fill="black"/>
<path d="M547.985 199.429C547.985 199.429 550.953 201.47 552.932 210.655C554.911 219.84 567.775 254.538 562.827 262.702C557.88 270.867 549.964 289.236 533.142 276.99L516.32 245.353L533.142 229.025L540.069 234.127L547.985 199.429Z" fill="#2F2E41"/>
<path d="M482.499 140.952C482.499 140.952 465.486 112.516 483.607 111.037C489.654 110.6 495.559 108.941 500.985 106.153C506.991 103.001 514.552 100.605 518.575 105.457C520.331 107.676 522.378 109.632 524.657 111.268C528.192 113.686 532.281 117.605 530.017 121.808L526.304 128.7L521.107 142.484C522.317 136.538 522.348 131.547 519.251 129.083C519.251 129.083 501.972 136.667 493.265 122.957C483.517 115.414 480.416 139.156 482.499 140.952Z" fill="#2F2E41"/>
<path d="M506.92 200.96C509.653 200.96 511.868 198.676 511.868 195.857C511.868 193.039 509.653 190.755 506.92 190.755C504.188 190.755 501.973 193.039 501.973 195.857C501.973 198.676 504.188 200.96 506.92 200.96Z" fill="#00BFA6"/>
</svg>
